<svg id="Layer_1" data-name="Layer 1" xmlns="http://www.w3.org/2000/svg" viewBox="0 0 26 10.81"><defs><style>.cls-1{fill:#010101;}.cls-2{fill:#ee2626;}</style></defs><path class="cls-1" d="M3.53,10.78v1.56H3.6a.61.61,0,0,0,.53-.23,1.39,1.39,0,0,0,.21-.67h.11v2H4.34a1.52,1.52,0,0,0-.14-.54.65.65,0,0,0-.26-.28.89.89,0,0,0-.41-.07v1.08a2.37,2.37,0,0,0,0,.38.29.29,0,0,0,.1.12.49.49,0,0,0,.24,0h.23A1.35,1.35,0,0,0,5,13.92a1.34,1.34,0,0,0,.46-.75h.11l-.18,1.21H2.07v-.1H2.2a.48.48,0,0,0,.26-.06.28.28,0,0,0,.12-.14,1.14,1.14,0,0,0,0-.35V11.22a1.64,1.64,0,0,0,0-.32.25.25,0,0,0-.1-.16.5.5,0,0,0-.29-.07H2.07v-.11h3.2v1.13H5.16a1.31,1.31,0,0,0-.23-.59.9.9,0,0,0-.42-.27,2.41,2.41,0,0,0-.59-.05Z" transform="translate(-2 -9.6)"/><path class="cls-1" d="M8.15,13.7l.09.07a1.26,1.26,0,0,1-.47.52,1,1,0,0,1-.59.17,1,1,0,0,1-.84-.39,1.52,1.52,0,0,1-.32-1,1.64,1.64,0,0,1,.29-.95,1.1,1.1,0,0,1,1-.49,1,1,0,0,1,.65.2.62.62,0,0,1,.24.46.33.33,0,0,1-.1.26.36.36,0,0,1-.25.1.38.38,0,0,1-.28-.11.64.64,0,0,1-.13-.39.43.43,0,0,0-.08-.25.21.21,0,0,0-.16-.07.27.27,0,0,0-.23.14,1.19,1.19,0,0,0-.14.67,2.45,2.45,0,0,0,.11.71,1.1,1.1,0,0,0,.33.5.56.56,0,0,0,.36.12A.63.63,0,0,0,7.86,14,1.17,1.17,0,0,0,8.15,13.7Z" transform="translate(-2 -9.6)"/><path class="cls-1" d="M9.8,11.67a1.19,1.19,0,0,1,.64.18,1.09,1.09,0,0,1,.45.5,1.58,1.58,0,0,1,.16.72,1.55,1.55,0,0,1-.29.94,1.12,1.12,0,0,1-.95.45,1.1,1.1,0,0,1-.91-.41,1.51,1.51,0,0,1-.32-1,1.55,1.55,0,0,1,.32-1A1.08,1.08,0,0,1,9.8,11.67Zm0,.2a.34.34,0,0,0-.25.11.79.79,0,0,0-.14.43c0,.21,0,.51,0,.89a3.36,3.36,0,0,0,0,.56.6.6,0,0,0,.13.3.33.33,0,0,0,.23.11A.38.38,0,0,0,10,14.2a.5.5,0,0,0,.14-.27,6.12,6.12,0,0,0,.06-1.08,3.09,3.09,0,0,0-.05-.66.51.51,0,0,0-.16-.26A.31.31,0,0,0,9.82,11.87Z" transform="translate(-2 -9.6)"/><path class="cls-1" d="M13.14,11.78H14v.31h-.51a.79.79,0,0,1,.19.25.71.71,0,0,1,.07.32.76.76,0,0,1-.16.49,1,1,0,0,1-.42.32,1.21,1.21,0,0,1-.48.12l-.34,0a.29.29,0,0,0-.21.09.25.25,0,0,0-.09.2.21.21,0,0,0,.08.16.36.36,0,0,0,.25.07h.49a1.74,1.74,0,0,1,.82.13.61.61,0,0,1,.32.56.68.68,0,0,1-.15.43.87.87,0,0,1-.39.29,2.37,2.37,0,0,1-.83.14,2.59,2.59,0,0,1-.65-.07.91.91,0,0,1-.42-.19.35.35,0,0,1-.13-.26.3.3,0,0,1,.1-.23.67.67,0,0,1,.36-.17.58.58,0,0,1-.37-.51.57.57,0,0,1,.15-.37,1.12,1.12,0,0,1,.48-.32,1.18,1.18,0,0,1-.55-.37.85.85,0,0,1-.17-.52.88.88,0,0,1,.32-.67,1.16,1.16,0,0,1,.81-.28A1.58,1.58,0,0,1,13.14,11.78Zm-.66,3a1,1,0,0,0-.38.05.28.28,0,0,0-.16.24.34.34,0,0,0,.17.26,1.15,1.15,0,0,0,.63.12,1.45,1.45,0,0,0,.61-.11.33.33,0,0,0,.23-.29.17.17,0,0,0-.05-.12.36.36,0,0,0-.23-.12A6.16,6.16,0,0,0,12.48,14.77Zm.17-2.93a.32.32,0,0,0-.27.17,1.29,1.29,0,0,0-.12.68,1.13,1.13,0,0,0,.11.58.32.32,0,0,0,.55,0,1.14,1.14,0,0,0,.11-.6A1.24,1.24,0,0,0,12.9,12,.29.29,0,0,0,12.65,11.84Z" transform="translate(-2 -9.6)"/><path class="cls-1" d="M16.88,11.75v2.06a.74.74,0,0,0,.06.38.28.28,0,0,0,.22.09v.1H16.09V14a1.4,1.4,0,0,1-.38.33.84.84,0,0,1-.42.1.64.64,0,0,1-.4-.13.77.77,0,0,1-.23-.32,2.39,2.39,0,0,1-.06-.64v-1a.87.87,0,0,0,0-.37.38.38,0,0,0-.23-.1v-.1h1.07v1.8a1.27,1.27,0,0,0,0,.36.24.24,0,0,0,.08.13.23.23,0,0,0,.14,0,.41.41,0,0,0,.18-.05,1.42,1.42,0,0,0,.27-.3V12.32A.69.69,0,0,0,16,12a.32.32,0,0,0-.22-.1v-.1Z" transform="translate(-2 -9.6)"/><path class="cls-1" d="M19,14a1.36,1.36,0,0,1-.87.43.51.51,0,0,1-.52-.52.73.73,0,0,1,.26-.54A4.64,4.64,0,0,1,19,12.72v-.27a1.31,1.31,0,0,0,0-.37.35.35,0,0,0-.13-.14.34.34,0,0,0-.2-.06.49.49,0,0,0-.3.09.13.13,0,0,0-.07.11.25.25,0,0,0,.07.15.33.33,0,0,1,.11.23.31.31,0,0,1-.1.24.41.41,0,0,1-.27.1.44.44,0,0,1-.3-.11.33.33,0,0,1-.12-.25.61.61,0,0,1,.16-.39,1,1,0,0,1,.45-.28,1.72,1.72,0,0,1,.6-.1.94.94,0,0,1,.59.16.76.76,0,0,1,.29.34,2.66,2.66,0,0,1,0,.55v1a1.17,1.17,0,0,0,0,.23.16.16,0,0,0,0,.07l.07,0a.22.22,0,0,0,.15-.1l.08.06a1.09,1.09,0,0,1-.29.31.67.67,0,0,1-.34.09.52.52,0,0,1-.36-.11A.48.48,0,0,1,19,14Zm0-.2v-.88a1.59,1.59,0,0,0-.51.42.58.58,0,0,0-.11.31.33.33,0,0,0,.09.23.28.28,0,0,0,.2.08A.59.59,0,0,0,19,13.79Z" transform="translate(-2 -9.6)"/><path class="cls-1" d="M21.52,11.75v.6A2,2,0,0,1,22,11.8a.69.69,0,0,1,.38-.13.34.34,0,0,1,.26.1.37.37,0,0,1,.09.27.42.42,0,0,1-.09.29.29.29,0,0,1-.22.11.35.35,0,0,1-.26-.1l-.13-.1a.08.08,0,0,0-.07,0,.24.24,0,0,0-.15.06.59.59,0,0,0-.18.27,2,2,0,0,0-.09.61v.76a.5.5,0,0,0,0,.21.18.18,0,0,0,.1.11.54.54,0,0,0,.22,0v.1H20.45v-.1a.33.33,0,0,0,.23-.09.93.93,0,0,0,.06-.43V12.31a1.48,1.48,0,0,0,0-.29.36.36,0,0,0-.08-.12.56.56,0,0,0-.19-.05v-.1Z" transform="translate(-2 -9.6)"/><path class="cls-1" d="M25.55,10.56v3a2.11,2.11,0,0,0,0,.37.28.28,0,0,0,.09.14.47.47,0,0,0,.22.05v.1l-1.11.21v-.41a1.37,1.37,0,0,1-.36.32.7.7,0,0,1-.35.09.9.9,0,0,1-.8-.45,1.59,1.59,0,0,1-.24-.9,1.84,1.84,0,0,1,.15-.76,1.15,1.15,0,0,1,.4-.51,1,1,0,0,1,.55-.17.7.7,0,0,1,.33.07,1.35,1.35,0,0,1,.32.26v-.8a1.18,1.18,0,0,0,0-.36.29.29,0,0,0-.1-.12.51.51,0,0,0-.25,0v-.12Zm-.78,1.79c-.14-.27-.31-.4-.51-.4a.35.35,0,0,0-.18.05.74.74,0,0,0-.17.31,2.81,2.81,0,0,0-.06.68,2.65,2.65,0,0,0,.07.73.77.77,0,0,0,.2.35.24.24,0,0,0,.18,0c.16,0,.32-.13.47-.38Z" transform="translate(-2 -9.6)"/><rect class="cls-2" x="12.23" y="5.14" width="11.59" height="0.51"/><rect class="cls-2" y="5.29" width="8.49" height="5.52" rx="1.06"/><path class="cls-1" d="M27.06,11.47a.94.94,0,1,1,.94-.94A.94.94,0,0,1,27.06,11.47Zm0-1.72a.78.78,0,0,0-.78.78.79.79,0,1,0,.78-.78Z" transform="translate(-2 -9.6)"/><path class="cls-1" d="M14.94,16v.49h0a.25.25,0,0,0,.13,0,.15.15,0,0,0,.08-.08.33.33,0,0,0,.05-.15h0v.6h0a.33.33,0,0,0-.09-.23.34.34,0,0,0-.17,0h0v.37A.28.28,0,0,0,15,17s0,0,0,0l.07,0h0v0h-.62v0h0a.15.15,0,0,0,.08,0,.08.08,0,0,0,0,0,.28.28,0,0,0,0-.11v-.79a.25.25,0,0,0,0-.11l0,0-.08,0h0v0h1v.34h0a.38.38,0,0,0-.06-.18.24.24,0,0,0-.15-.08h-.3Z" transform="translate(-2 -9.6)"/><path class="cls-1" d="M16.76,17.05v0h-.62v0h0l.08,0a.08.08,0,0,0,0,0,1,1,0,0,0,0-.11v-.79a.8.8,0,0,0,0-.11.08.08,0,0,0,0,0l-.08,0h0v0h.62v0h0l-.08,0a.08.08,0,0,0,0,0,.8.8,0,0,0,0,.11v.79a1,1,0,0,0,0,.11s0,0,0,0l.08,0Z" transform="translate(-2 -9.6)"/><path class="cls-1" d="M18.57,16.66l0,.42H17.47v0h0l.08,0a.08.08,0,0,0,0,0,1,1,0,0,0,0-.11v-.79a.8.8,0,0,0,0-.11.08.08,0,0,0,0,0l-.08,0h0v0h.63v0h-.05l-.08,0a.08.08,0,0,0,0,0,.8.8,0,0,0,0,.11v.76c0,.06,0,.1,0,.12s0,0,0,0h.21a.38.38,0,0,0,.16,0,.29.29,0,0,0,.11-.11.61.61,0,0,0,.08-.21Z" transform="translate(-2 -9.6)"/><path class="cls-1" d="M20.27,15.89v.32h0a.4.4,0,0,0-.07-.16.24.24,0,0,0-.09-.08h-.21v.92a1,1,0,0,0,0,.11l0,0,.09,0h0v0h-.62v0h0l.08,0a.08.08,0,0,0,0,0,.28.28,0,0,0,0-.11V16H19.5c-.08,0-.14,0-.17.05a.34.34,0,0,0-.1.2h0v-.32Z" transform="translate(-2 -9.6)"/><path class="cls-1" d="M21.42,16v.48h0a.18.18,0,0,0,.16-.07.4.4,0,0,0,.06-.21h0v.62h0a.38.38,0,0,0,0-.16.15.15,0,0,0-.08-.09.24.24,0,0,0-.13,0v.33c0,.07,0,.11,0,.12l0,0h.15a.4.4,0,0,0,.26-.07A.45.45,0,0,0,22,16.7h0l-.05.38H21v0h0l.08,0a.08.08,0,0,0,0,0,1,1,0,0,0,0-.11v-.79a.77.77,0,0,0,0-.1s0,0,0-.05l-.09,0h0v0h1v.35h0a.5.5,0,0,0-.07-.19.32.32,0,0,0-.13-.08h-.31Z" transform="translate(-2 -9.6)"/><path class="cls-1" d="M23.24,16.54v.33a.35.35,0,0,0,0,.12.08.08,0,0,0,0,0l.12,0v0H22.8v0l.11,0a.08.08,0,0,0,0,0,.35.35,0,0,0,0-.12V16.1C23,16,23,16,23,16l0-.05H22.8v0h.55a1.27,1.27,0,0,1,.32,0,.29.29,0,0,1,.16.11.29.29,0,0,1,.06.19.27.27,0,0,1-.09.21.39.39,0,0,1-.17.09l.28.4L24,17l.09,0v0H23.7l-.38-.54Zm0-.59v.52h.05a.44.44,0,0,0,.18,0,.16.16,0,0,0,.1-.08.33.33,0,0,0,0-.15.28.28,0,0,0-.06-.2.25.25,0,0,0-.21-.07Z" transform="translate(-2 -9.6)"/><path class="cls-1" d="M25.54,15.86v.4h0a.46.46,0,0,0-.12-.24.33.33,0,0,0-.22-.09A.2.2,0,0,0,25,16a.14.14,0,0,0-.05.11.15.15,0,0,0,0,.07.38.38,0,0,0,.09.09l.19.1a.88.88,0,0,1,.28.19.31.31,0,0,1,.07.21.34.34,0,0,1-.12.26.4.4,0,0,1-.29.11H25.1L25,17.05h-.12a.09.09,0,0,0,0,.06h0v-.45h0A.48.48,0,0,0,25,17a.37.37,0,0,0,.23.1.21.21,0,0,0,.16-.06.14.14,0,0,0,.06-.12.19.19,0,0,0,0-.08.27.27,0,0,0-.07-.08l-.16-.09a1.93,1.93,0,0,1-.24-.14l-.11-.12a.41.41,0,0,1,0-.16.33.33,0,0,1,.1-.24.35.35,0,0,1,.26-.1h.12l.1,0,.08,0h0s0,0,0-.07Z" transform="translate(-2 -9.6)"/><path class="cls-1" d="M27,10.56v.2s0,.06,0,.07l0,0h.07v0h-.36v0h.07l0,0s0,0,0-.07v-.45s0-.06,0-.07l0,0h.44a.16.16,0,0,1,.09.07.14.14,0,0,1,0,.11.14.14,0,0,1-.06.12.19.19,0,0,1-.09.05l.16.23.05.06.05,0v0h-.22L27,10.56Zm0-.34v.31h0l.11,0a.1.1,0,0,0,.05,0,.29.29,0,0,0,0-.09.15.15,0,0,0,0-.12.16.16,0,0,0-.11,0Z" transform="translate(-2 -9.6)"/></svg>